<svg xmlns="http://www.w3.org/2000/svg" xmlns:xlink="http://www.w3.org/1999/xlink" x="0" y="0" width="661.1666259765625" height="276.16668701171875" style="
        width:661.1666259765625px;
        height:276.16668701171875px;
        background: transparent;
        fill: none;
">
        
        
        <svg xmlns="http://www.w3.org/2000/svg" class="role-diagram-draw-area"><g class="shapes-region" style="stroke: black; fill: none;"><g class="arrow-line"><path class="connection real" stroke-dasharray="" d="  M197,40 L197,222" style="stroke: rgb(0, 0, 0); stroke-width: 1px; fill: none; fill-opacity: 1;"/></g><g class="arrow-line"><path class="connection real" stroke-dasharray="" d="  M383,222 L197,222" style="stroke: rgb(0, 0, 0); stroke-width: 1px; fill: none; fill-opacity: 1;"/></g><g class="arrow-line"><path class="connection real" stroke-dasharray="" d="  M383,222 L383,40" style="stroke: rgb(0, 0, 0); stroke-width: 1px; fill: none; fill-opacity: 1;"/></g><g class="arrow-line"><path class="connection real" stroke-dasharray="" d="  M383,40 L477.5,40" style="stroke: rgb(0, 0, 0); stroke-width: 1px; fill: none; fill-opacity: 1;"/></g><g class="composite-shape axis2d" style="stroke-width: 1px; stroke: rgb(0, 0, 0);"><path class="real" d=" M274.45,222 L429.95,222 M290,24.9 L290,243.9"/><path d=" M422.95,217 L429.95,222 L422.95,227"/><path d=" M285,31.9 L290,24.9 L295,31.9"/></g><g class="composite-shape axis2d" style="stroke-width: 1px; stroke: rgb(0, 0, 0);"><path class="real" d=" M305.55,222 L150.05,222 M290,24.9 L290,243.9"/><path d=" M157.05,217 L150.05,222 L157.05,227"/><path d=" M295,31.9 L290,24.9 L285,31.9"/></g><g class="arrow-line"><path class="connection real" stroke-dasharray="" d="  M102.5,40 L197,40" style="stroke: rgb(0, 0, 0); stroke-width: 1px; fill: none; fill-opacity: 1;"/></g><g/></g><g/><g/><g/></svg>
        <svg xmlns="http://www.w3.org/2000/svg" xmlns:xlink="http://www.w3.org/1999/xlink" width="660" height="275" style="width:660px;height:275px;font-family:Asana-Math, Asana;background:transparent;"><g><g><g><g transform="matrix(1,0,0,1,282.5999755859375,20.583328247070312)"><path transform="matrix(0.017,0,0,-0.017,0,0)" d="M843 284C843 380 792 461 687 461C600 461 516 378 463 315C419 387 334 463 245 463C129 463 55 352 55 244C55 148 109 66 213 66C296 66 389 152 436 216C485 143 561 65 655 65C771 65 843 179 843 284ZM783 236C783 166 748 108 673 108C594 108 522 226 481 284C513 332 597 409 656 409C740 409 783 307 783 236ZM418 245C387 198 301 122 243 122C159 122 117 224 117 296C117 366 153 424 229 424C300 424 387 304 418 245Z" stroke="rgb(0,0,0)" stroke-opacity="1" stroke-width="8" fill="rgb(0,0,0)" fill-opacity="1"></path></g></g></g></g><g><g><g><g transform="matrix(1,0,0,1,433.58331298828125,225.5833282470703)"><path transform="matrix(0.017,0,0,-0.017,0,0)" d="M9 1C24 -7 40 -11 52 -11C85 -11 124 18 155 65L231 182L242 113C255 28 278 -11 314 -11C336 -11 368 6 400 35L449 79L440 98C404 68 379 53 363 53C348 53 335 63 325 83C316 102 305 139 300 168L282 269L317 318C364 383 391 406 422 406C438 406 450 398 455 383L469 387L484 472C472 479 463 482 454 482C414 482 374 446 312 354L275 299L269 347C257 446 230 482 171 482C145 482 123 474 114 461L56 378L73 368C103 402 123 416 142 416C175 416 197 375 214 277L225 215L185 153C142 86 108 54 80 54C65 54 54 58 52 63L41 91L21 88C21 53 13 27 9 1Z" stroke="rgb(0,0,0)" stroke-opacity="1" stroke-width="8" fill="rgb(0,0,0)" fill-opacity="1"></path></g></g></g></g><g><g><g><g><g><g><g transform="matrix(1,0,0,1,376.2833251953125,242.5833282470703)"><path transform="matrix(0.017,0,0,-0.017,0,0)" d="M349 664L352 692L238 689C222 689 204 689 161 690L97 692L94 664L141 662C165 661 176 653 176 635L81 55C77 37 65 30 21 23L16 -3L57 -2C88 -1 150 0 170 0L467 -1L500 0C499 25 510 103 523 165L492 165L475 103C466 71 457 54 448 49C435 44 371 39 304 39C255 39 228 40 162 46C165 64 256 605 256 613C263 651 270 658 307 661Z" stroke="rgb(0,0,0)" stroke-opacity="1" stroke-width="8" fill="rgb(0,0,0)" fill-opacity="1"></path></g></g></g></g><g><g><g><g transform="matrix(1,0,0,1,376.75,268.38331604003906)"><path transform="matrix(0.017,0,0,-0.017,0,0)" d="M16 23L16 -3C203 -3 203 0 239 0C275 0 275 -3 468 -3L468 82C353 77 307 81 122 77L304 270C401 373 431 428 431 503C431 618 353 689 226 689C154 689 105 669 56 619L39 483L68 483L81 529C97 587 133 612 200 612C286 612 341 558 341 473C341 398 299 324 186 204Z" stroke="rgb(0,0,0)" stroke-opacity="1" stroke-width="8" fill="rgb(0,0,0)" fill-opacity="1"></path></g></g></g></g><line style="fill:none;stroke-width:0.583333px;stroke:rgb(0, 0, 0);" x1="376.2833251953125" y1="250.64999389648438" x2="385.7166442871094" y2="250.64999389648438"></line></g></g></g><g><g><g><g transform="matrix(1,0,0,1,180.58331298828125,252.9833221435547)"><path transform="matrix(0.017,0,0,-0.017,0,0)" d="M555 243L555 299L51 299L51 243Z" stroke="rgb(0,0,0)" stroke-opacity="1" stroke-width="8" fill="rgb(0,0,0)" fill-opacity="1"></path></g></g><g><g><g><g><g transform="matrix(1,0,0,1,192.566650390625,240.5833282470703)"><path transform="matrix(0.017,0,0,-0.017,0,0)" d="M349 664L352 692L238 689C222 689 204 689 161 690L97 692L94 664L141 662C165 661 176 653 176 635L81 55C77 37 65 30 21 23L16 -3L57 -2C88 -1 150 0 170 0L467 -1L500 0C499 25 510 103 523 165L492 165L475 103C466 71 457 54 448 49C435 44 371 39 304 39C255 39 228 40 162 46C165 64 256 605 256 613C263 651 270 658 307 661Z" stroke="rgb(0,0,0)" stroke-opacity="1" stroke-width="8" fill="rgb(0,0,0)" fill-opacity="1"></path></g></g></g></g><g><g><g><g transform="matrix(1,0,0,1,193.04998779296875,266.38331604003906)"><path transform="matrix(0.017,0,0,-0.017,0,0)" d="M16 23L16 -3C203 -3 203 0 239 0C275 0 275 -3 468 -3L468 82C353 77 307 81 122 77L304 270C401 373 431 428 431 503C431 618 353 689 226 689C154 689 105 669 56 619L39 483L68 483L81 529C97 587 133 612 200 612C286 612 341 558 341 473C341 398 299 324 186 204Z" stroke="rgb(0,0,0)" stroke-opacity="1" stroke-width="8" fill="rgb(0,0,0)" fill-opacity="1"></path></g></g></g></g><line style="fill:none;stroke-width:0.583333px;stroke:rgb(0, 0, 0);" x1="192.566650390625" y1="248.64999389648438" x2="201.99998474121094" y2="248.64999389648438"></line></g></g></g><g><g><g><g transform="matrix(1,0,0,1,285.5999755859375,261.5833282470703)"><path transform="matrix(0.017,0,0,-0.017,0,0)" d="M263 689C108 689 29 566 29 324C29 207 50 106 85 57C120 8 176 -20 238 -20C389 -20 465 110 465 366C465 585 400 689 263 689ZM245 654C342 654 381 556 381 316C381 103 343 15 251 15C154 15 113 116 113 360C113 571 150 654 245 654Z" stroke="rgb(0,0,0)" stroke-opacity="1" stroke-width="8" fill="rgb(0,0,0)" fill-opacity="1"></path></g></g></g><g></g></g></svg>
</svg>
